# Blender v2.76 (sub 0) OBJ File: 'ground.blend'
# www.blender.org
v -8.000000 0.000000 8.000000
v 8.000000 0.000000 8.000000
v -8.000000 0.000000 -8.000000
v 8.000000 0.000000 -8.000000
v -8.000000 0.000000 0.000000
v 0.000000 0.000000 8.000000
v 8.000000 0.000000 0.000000
v 0.206482 -1.074478 -8.008265
v 0.000000 0.000000 0.000000
v -8.000000 0.000000 4.000000
v 4.000000 0.000000 8.000000
v 8.000000 0.000000 -4.000000
v -4.000000 -0.456851 -8.000000
v -8.000000 0.000000 -4.000000
v -4.000000 0.000000 8.000000
v 8.000000 0.000000 4.000000
v 4.000000 0.000000 -8.000000
v 0.000000 -0.073191 -4.000000
v 0.000000 0.000000 4.000000
v -4.000000 0.000000 0.000000
v 4.000000 0.000000 0.000000
v 4.000000 0.000000 4.000000
v -4.000000 0.000000 4.000000
v -4.000000 -0.094667 -4.000000
v 4.000000 0.000000 -4.000000
v -8.000000 0.000000 6.000000
v 6.000000 0.000000 8.000000
v 8.000000 0.000000 -6.000000
v -6.000000 0.000000 -8.000000
v -8.000000 0.000000 -2.000000
v -2.000000 0.000000 8.000000
v 8.000000 0.000000 2.000000
v 2.000000 -0.274115 -8.000000
v 0.000000 -0.648075 -6.000000
v 0.000000 0.000000 2.000000
v -6.000000 0.000000 0.000000
v 2.000000 0.000000 0.000000
v -8.000000 0.000000 2.000000
v 2.000000 0.000000 8.000000
v 8.000000 0.000000 -2.000000
v -2.000000 -0.857819 -8.000000
v -8.000000 0.000000 -6.000000
v -6.000000 0.000000 8.000000
v 8.000000 0.000000 6.000000
v 6.000000 0.000000 -8.000000
v 0.000000 0.000000 -2.000000
v 0.000000 0.000000 6.000000
v -2.000000 0.000000 0.000000
v 6.000000 0.000000 0.000000
v 4.000000 0.000000 2.000000
v 4.000000 0.000000 6.000000
v 2.000000 0.000000 4.000000
v 6.000000 0.000000 4.000000
v -4.000000 0.000000 2.000000
v -4.000000 0.000000 6.000000
v -6.000000 0.000000 4.000000
v -2.000000 0.000000 4.000000
v -4.000000 -0.597029 -6.000000
v -4.000000 0.000000 -2.000000
v -6.000000 0.000000 -4.000000
v -2.000000 -0.146918 -4.000000
v 4.000000 0.000000 -6.000000
v 4.000000 0.000000 -2.000000
v 2.000000 0.000000 -4.000000
v 6.000000 0.000000 -4.000000
v 6.000000 0.000000 -2.000000
v 2.000000 0.000000 -2.000000
v 2.000000 0.000000 -6.000000
v -2.000000 0.000000 -2.000000
v -6.000000 0.000000 -2.000000
v -6.000000 0.000000 -6.000000
v -2.000000 0.000000 6.000000
v -6.000000 0.000000 6.000000
v -6.000000 0.000000 2.000000
v 6.000000 0.000000 6.000000
v 2.000000 0.000000 6.000000
v 2.000000 0.000000 2.000000
v 6.000000 0.000000 2.000000
v -2.000000 0.000000 2.000000
v -2.000000 -0.464975 -6.000000
v 6.000000 0.000000 -6.000000
v -8.000000 1.298984 6.000000
v -8.000000 1.298984 8.000000
v 6.000000 1.298984 8.000000
v 8.000000 1.298984 8.000000
v -2.000000 1.298984 8.000000
v 0.000000 1.298984 8.000000
v 2.000000 1.298984 8.000000
v 4.000000 1.298984 8.000000
v -6.000000 1.298984 8.000000
v -4.000000 1.298984 8.000000
v 8.000000 1.298984 6.000000
v 0.000000 1.298984 6.000000
v 4.000000 1.298984 6.000000
v -4.000000 1.298984 6.000000
v -2.000000 1.298984 6.000000
v -6.000000 1.298984 6.000000
v 6.000000 1.298984 6.000000
v 2.000000 1.298984 6.000000
v -8.000000 2.427139 6.000000
v -8.000000 2.427139 8.000000
v -6.000000 2.427139 8.000000
v -6.000000 2.427139 6.000000
v -6.000000 0.967973 4.000000
v -8.000000 0.967973 4.000000
v -8.000000 0.967973 6.000000
v -6.000000 0.967973 6.000000
v -8.000000 0.541798 2.000000
v -8.000000 0.541798 4.000000
v -6.000000 0.541798 4.000000
v -6.000000 0.541798 2.000000
v -6.000000 0.146093 0.000000
v -8.000000 0.146093 0.000000
v -8.000000 0.146093 2.000000
v -6.000000 0.146093 2.000000
vt 0.574558 0.000000
vt 0.670317 0.000000
vt 0.670317 0.108536
vt 0.575195 0.434145
vt 0.671769 0.422941
vt 0.671161 0.542681
vt 0.191519 0.434142
vt 0.287279 0.434142
vt 0.287279 0.542678
vt 0.191520 0.000000
vt 0.287279 0.000000
vt 0.287279 0.108536
vt 0.191520 0.217071
vt 0.287279 0.217071
vt 0.287279 0.325607
vt 0.000001 0.217071
vt 0.095760 0.217071
vt 0.095760 0.325607
vt 0.000001 0.000000
vt 0.095760 0.000000
vt 0.095760 0.108536
vt 0.191519 0.651213
vt 0.287279 0.651213
vt 0.287279 0.759749
vt 0.000000 0.651214
vt 0.095760 0.651213
vt 0.095760 0.759749
vt 0.000000 0.434142
vt 0.095760 0.434142
vt 0.095760 0.542678
vt 0.574557 0.759749
vt 0.575144 0.651216
vt 0.670766 0.651215
vt 0.383038 0.651213
vt 0.478891 0.651214
vt 0.478798 0.759749
vt 0.383038 0.542678
vt 0.383038 0.434142
vt 0.478870 0.434143
vt 0.574558 0.325607
vt 0.574558 0.217071
vt 0.670317 0.217071
vt 0.383039 0.217071
vt 0.478798 0.217071
vt 0.478798 0.325607
vt 0.383039 0.000000
vt 0.478798 0.000000
vt 0.478798 0.108536
vt 0.383039 0.108536
vt 0.383039 0.325607
vt 0.670587 0.325608
vt 0.478942 0.542678
vt 0.383038 0.759749
vt 0.478797 0.868284
vt 0.383038 0.868285
vt 0.670317 0.759749
vt 0.670317 0.868284
vt 0.574557 0.868284
vt 0.000000 0.542678
vt 0.671769 0.651213
vt 0.733978 0.651213
vt 0.733978 0.759749
vt 0.671769 0.325607
vt 0.733978 0.325607
vt 0.733978 0.434142
vt 0.641410 0.976820
vt 0.595053 0.976820
vt 0.595053 0.868285
vt 0.671769 0.000000
vt 0.733978 0.000000
vt 0.733978 0.108536
vt 0.671769 0.542678
vt 0.733978 0.542678
vt 0.898257 0.976820
vt 0.891261 0.976820
vt 0.891261 0.868285
vt 0.858318 0.976820
vt 0.832371 0.976820
vt 0.832371 0.868285
vt 0.191519 0.759749
vt 0.000001 0.108536
vt 0.904240 0.108536
vt 0.842032 0.108536
vt 0.842032 0.000000
vt 0.000000 1.000000
vt 0.000000 0.929507
vt 0.095780 0.929507
vt 0.000000 0.325607
vt 0.904240 0.759749
vt 0.842032 0.759749
vt 0.842032 0.651213
vt 0.904240 0.217071
vt 0.842032 0.217071
vt 0.191520 0.325607
vt 0.191520 0.108536
vt 0.191519 0.542678
vt 0.575015 0.542680
vt 0.574558 0.108536
vt 0.904240 0.542678
vt 1.000000 0.542678
vt 1.000000 0.651213
vt 0.904240 0.434142
vt 1.000000 0.434142
vt 0.788005 0.759749
vt 0.788005 0.868285
vt 0.904240 0.651213
vt 1.000000 0.759749
vt 1.000000 0.108536
vt 1.000000 0.217071
vt 0.904241 0.000000
vt 1.000000 0.000000
vt 0.904240 0.325607
vt 1.000000 0.325607
vt 0.842032 0.542678
vt 0.842032 0.434142
vt 0.842032 0.325607
vt 0.671769 0.108536
vt 0.733978 0.217071
vt 0.671769 0.434142
vt 0.671769 0.759749
vt 0.733978 0.868285
vt 0.671769 0.217071
vt 0.541026 0.976820
vt 0.478818 0.976820
vt 0.904240 0.868285
vt 0.842032 0.868285
vt 0.383058 0.868285
vt 0.000000 0.868285
vt 0.095780 0.868285
vt 0.541026 0.868285
vt 0.383058 0.976820
vt 0.287299 0.976820
vt 0.287299 0.868285
vt 0.780478 0.976820
vt 0.734122 0.976820
vt 0.734122 0.868285
vt 0.641410 0.868285
vt 0.687766 0.868285
vt 0.687766 0.976820
vt 0.191539 0.868285
vt 0.191539 0.976820
vt 0.884264 0.976820
vt 0.858318 0.868285
vt 0.806425 0.868285
vt 0.780478 0.868285
vt 0.806425 0.976820
vt 0.905254 0.976820
vt 0.898257 0.868285
vt 0.884264 0.868285
vt 0.911237 0.868285
vt 0.000000 0.759749
vt 0.095780 1.000000
vt 0.671770 0.868285
vt 0.095780 0.976820
vt 0.905254 0.868285
vt 0.911237 0.759749
vn 0.000000 1.000000 0.000000
vn 0.095100 0.975700 -0.197400
vn 0.285400 0.956100 0.067000
vn 0.047200 0.997800 -0.047200
vn 0.000000 0.999300 -0.036600
vn -0.305700 0.943300 -0.129300
vn -0.036600 0.999300 0.000000
vn 0.026000 0.997000 -0.073200
vn 0.278100 0.931600 -0.234000
vn 0.000000 0.000000 1.000000
vn 1.000000 0.000000 0.000000
vn 0.000000 0.000000 -1.000000
vn -1.000000 0.000000 0.000000
vn 0.193000 0.962800 -0.189100
vn 0.025800 0.987300 -0.157000
vn 0.087600 0.957400 -0.275200
vn 0.089500 0.977300 -0.192000
vn 0.222700 0.974900 0.000000
vn -0.036700 0.996600 -0.073200
vn -0.134600 0.981700 -0.134600
vn -0.036500 0.998700 -0.036500
vn -0.395800 0.889200 -0.229500
vn -0.297300 0.917600 -0.263800
vn 0.000000 0.998900 -0.047300
vn 0.047300 0.998900 0.000000
vn -0.065700 0.995400 0.069800
vn -0.063900 0.967900 -0.243100
vn -0.036400 0.986900 -0.157000
s off
f 28/1/1 4/2/1 45/3/1
f 34/4/2 8/5/2 41/6/2
f 35/7/1 9/8/1 48/9/1
f 32/10/1 7/11/1 49/12/1
f 50/13/1 21/14/1 37/15/1
f 51/16/1 22/17/1 52/18/1
f 44/19/1 16/20/1 53/21/1
f 54/22/1 20/23/1 36/24/1
f 55/25/1 23/26/1 56/27/1
f 47/28/1 19/29/1 57/30/1
f 71/31/3 58/32/3 13/33/3
f 59/34/4 24/35/4 60/36/4
f 69/37/5 46/38/5 18/39/5
f 68/40/1 62/41/1 17/42/1
f 63/43/1 25/44/1 64/45/1
f 40/46/1 12/47/1 65/48/1
f 66/49/1 65/48/1 25/44/1
f 49/12/1 66/49/1 63/43/1
f 7/11/1 40/46/1 66/49/1
f 46/38/1 67/50/1 64/45/1
f 37/15/1 67/50/1 46/38/1
f 21/14/1 63/43/1 67/50/1
f 34/4/6 68/40/6 33/51/6
f 18/39/7 64/45/7 68/40/7
f 25/44/1 62/41/1 68/40/1
f 69/37/8 61/52/8 24/35/8
f 48/9/1 69/37/1 59/34/1
f 9/8/1 46/38/1 69/37/1
f 70/53/1 60/36/1 14/54/1
f 36/24/1 70/53/1 30/55/1
f 20/23/1 59/34/1 70/53/1
f 71/31/1 29/56/1 3/57/1
f 60/36/1 71/31/1 42/58/1
f 24/35/9 58/32/9 71/31/9
f 72/59/1 57/30/1 23/26/1
f 15/60/10 91/61/10 90/62/10
f 39/63/10 88/64/10 87/65/10
f 56/66/11 104/67/11 107/68/11
f 2/69/10 85/70/10 84/71/10
f 31/72/10 86/73/10 91/61/10
f 5/74/12 113/75/12 112/76/12
f 74/77/11 111/78/11 110/79/11
f 23/26/1 54/22/1 74/80/1
f 75/81/1 53/21/1 22/17/1
f 75/82/12 98/83/12 92/84/12
f 1/85/13 83/86/13 82/87/13
f 76/88/1 52/18/1 19/29/1
f 73/89/12 97/90/12 95/91/12
f 51/92/12 94/93/12 98/83/12
f 77/94/1 37/15/1 9/8/1
f 52/18/1 77/94/1 35/7/1
f 22/17/1 50/13/1 77/94/1
f 78/95/1 49/12/1 21/14/1
f 53/21/1 78/95/1 50/13/1
f 16/20/1 32/10/1 78/95/1
f 79/96/1 48/9/1 20/23/1
f 57/30/1 79/96/1 54/22/1
f 19/29/1 35/7/1 79/96/1
f 80/97/14 41/6/14 13/33/14
f 24/35/15 61/52/15 80/97/15
f 18/39/16 34/4/16 80/97/16
f 81/98/1 45/3/1 17/42/1
f 65/48/1 81/98/1 62/41/1
f 12/47/1 28/1/1 81/98/1
f 86/99/1 96/100/1 95/101/1
f 87/102/1 93/103/1 96/100/1
f 90/62/10 102/104/10 101/105/10
f 91/106/1 95/101/1 97/107/1
f 84/82/1 98/108/1 94/109/1
f 85/110/1 92/111/1 98/108/1
f 88/112/1 99/113/1 93/103/1
f 89/92/1 94/109/1 99/113/1
f 55/106/12 95/91/12 96/114/12
f 72/99/12 96/114/12 93/115/12
f 47/102/12 93/115/12 99/116/12
f 27/117/10 84/71/10 89/118/10
f 76/112/12 99/116/12 94/93/12
f 6/119/10 87/65/10 86/73/10
f 43/120/10 90/62/10 83/121/10
f 11/122/10 89/118/10 88/64/10
f 44/123/11 92/124/11 85/54/11
f 26/125/12 82/126/12 97/90/12
f 102/127/1 103/54/1 100/124/1
f 82/126/12 100/105/12 103/104/12
f 83/86/13 101/128/13 100/129/13
f 97/67/11 103/123/11 102/130/11
f 107/131/1 104/132/1 105/133/1
f 26/134/13 106/135/13 105/136/13
f 10/137/12 105/138/12 104/139/12
f 73/138/10 107/136/10 106/135/10
f 110/129/1 111/140/1 108/141/1
f 10/142/13 109/77/13 108/143/13
f 56/144/10 110/79/10 109/78/10
f 38/145/12 108/144/12 111/146/12
f 115/140/1 112/133/1 113/132/1
f 38/147/13 114/74/13 113/148/13
f 74/149/10 115/76/10 114/75/10
f 36/150/11 112/125/11 115/89/11
f 81/98/1 28/1/1 45/3/1
f 80/97/17 34/4/17 41/6/17
f 79/96/1 35/7/1 48/9/1
f 78/95/1 32/10/1 49/12/1
f 77/94/1 50/13/1 37/15/1
f 76/88/1 51/16/1 52/18/1
f 75/81/1 44/19/1 53/21/1
f 74/80/1 54/22/1 36/24/1
f 73/151/1 55/25/1 56/27/1
f 72/59/1 47/28/1 57/30/1
f 29/56/18 71/31/18 13/33/18
f 70/53/1 59/34/1 60/36/1
f 61/52/19 69/37/19 18/39/19
f 33/51/20 68/40/20 17/42/20
f 67/50/1 63/43/1 64/45/1
f 66/49/1 40/46/1 65/48/1
f 63/43/1 66/49/1 25/44/1
f 21/14/1 49/12/1 63/43/1
f 49/12/1 7/11/1 66/49/1
f 18/39/21 46/38/21 64/45/21
f 9/8/1 37/15/1 46/38/1
f 37/15/1 21/14/1 67/50/1
f 8/5/22 34/4/22 33/51/22
f 34/4/23 18/39/23 68/40/23
f 64/45/1 25/44/1 68/40/1
f 59/34/24 69/37/24 24/35/24
f 20/23/1 48/9/1 59/34/1
f 48/9/1 9/8/1 69/37/1
f 30/55/1 70/53/1 14/54/1
f 5/133/1 36/24/1 30/55/1
f 36/24/1 20/23/1 70/53/1
f 42/58/1 71/31/1 3/57/1
f 14/54/1 60/36/1 42/58/1
f 60/36/25 24/35/25 71/31/25
f 55/25/1 72/59/1 23/26/1
f 43/120/10 15/60/10 90/62/10
f 6/119/10 39/63/10 87/65/10
f 73/137/11 56/66/11 107/68/11
f 27/117/10 2/69/10 84/71/10
f 15/60/10 31/72/10 91/61/10
f 36/148/12 5/74/12 112/76/12
f 56/143/11 74/77/11 110/79/11
f 56/27/1 23/26/1 74/80/1
f 51/16/1 75/81/1 22/17/1
f 44/110/12 75/82/12 92/84/12
f 26/152/13 1/85/13 82/87/13
f 47/28/1 76/88/1 19/29/1
f 55/106/12 73/89/12 95/91/12
f 75/82/12 51/92/12 98/83/12
f 35/7/1 77/94/1 9/8/1
f 19/29/1 52/18/1 35/7/1
f 52/18/1 22/17/1 77/94/1
f 50/13/1 78/95/1 21/14/1
f 22/17/1 53/21/1 50/13/1
f 53/21/1 16/20/1 78/95/1
f 54/22/1 79/96/1 20/23/1
f 23/26/1 57/30/1 54/22/1
f 57/30/1 19/29/1 79/96/1
f 58/32/26 80/97/26 13/33/26
f 58/32/27 24/35/27 80/97/27
f 61/52/28 18/39/28 80/97/28
f 62/41/1 81/98/1 17/42/1
f 25/44/1 65/48/1 62/41/1
f 65/48/1 12/47/1 81/98/1
f 91/106/1 86/99/1 95/101/1
f 86/99/1 87/102/1 96/100/1
f 83/121/10 90/62/10 101/105/10
f 90/89/1 91/106/1 97/107/1
f 89/92/1 84/82/1 94/109/1
f 84/82/1 85/110/1 98/108/1
f 87/102/1 88/112/1 93/103/1
f 88/112/1 89/92/1 99/113/1
f 72/99/12 55/106/12 96/114/12
f 47/102/12 72/99/12 93/115/12
f 76/112/12 47/102/12 99/116/12
f 11/122/10 27/117/10 89/118/10
f 51/92/12 76/112/12 94/93/12
f 31/72/10 6/119/10 86/73/10
f 1/153/10 43/120/10 83/121/10
f 39/63/10 11/122/10 88/64/10
f 2/130/11 44/123/11 85/54/11
f 73/89/12 26/125/12 97/90/12
f 101/131/1 102/127/1 100/124/1
f 97/90/12 82/126/12 103/104/12
f 82/87/13 83/86/13 100/129/13
f 90/68/11 97/67/11 102/130/11
f 106/127/1 107/131/1 105/133/1
f 10/145/13 26/134/13 105/136/13
f 56/66/12 10/137/12 104/139/12
f 26/139/10 73/138/10 106/135/10
f 109/154/1 110/129/1 108/141/1
f 38/149/13 10/142/13 108/143/13
f 10/146/10 56/144/10 109/78/10
f 74/134/12 38/145/12 111/146/12
f 114/141/1 115/140/1 113/132/1
f 5/155/13 38/147/13 113/148/13
f 38/142/10 74/149/10 114/75/10
f 74/156/11 36/150/11 115/89/11
